<?xml version="1.0" standalone="no"?>
<!DOCTYPE svg PUBLIC "-//W3C//DTD SVG 20010904//EN"
 "http://www.w3.org/TR/2001/REC-SVG-20010904/DTD/svg10.dtd">
<svg version="1.0" xmlns="http://www.w3.org/2000/svg"
 width="3500.000000pt" height="3500.000000pt" viewBox="0 0 3500.000000 3500.000000"
 preserveAspectRatio="xMidYMid meet">
<metadata>
Created by potrace 1.11, written by Peter Selinger 2001-2013
</metadata>
<g transform="translate(0.000000,3500.000000) scale(0.100000,-0.100000)"
fill="#000000" stroke="none">
<path d="M12448 34635 c-2 -2 -61 -6 -133 -10 -146 -8 -192 -11 -285 -20 -98
-9 -261 -26 -295 -30 -16 -3 -68 -9 -115 -15 -47 -6 -123 -17 -170 -25 -47 -8
-103 -17 -125 -20 -22 -3 -75 -13 -118 -21 -42 -9 -90 -17 -105 -20 -23 -4
-113 -23 -187 -40 -11 -3 -31 -7 -44 -10 -20 -4 -64 -15 -161 -38 -365 -90
-681 -192 -1135 -366 -16 -6 -31 -11 -33 -11 -1 1 -19 -8 -39 -19 -21 -11 -41
-20 -45 -20 -4 0 -37 -13 -72 -30 -36 -16 -94 -41 -128 -56 -281 -118 -838
-420 -1133 -614 -49 -33 -97 -63 -105 -67 -8 -3 -17 -9 -20 -12 -3 -3 -54 -39
-115 -80 -60 -41 -112 -77 -115 -80 -3 -3 -27 -22 -55 -41 -27 -19 -54 -38
-60 -42 -5 -5 -35 -27 -66 -51 -113 -85 -122 -92 -133 -102 -6 -5 -56 -46
-111 -90 -55 -44 -113 -91 -130 -106 -16 -14 -55 -48 -85 -74 -184 -160 -536
-501 -675 -656 -156 -172 -306 -348 -385 -449 -19 -25 -40 -52 -47 -60 -26
-31 -159 -206 -176 -230 -9 -14 -44 -63 -78 -110 -33 -47 -81 -116 -106 -155
-26 -38 -49 -72 -52 -75 -3 -3 -11 -14 -18 -25 -6 -11 -54 -87 -106 -170 -356
-569 -641 -1177 -858 -1827 -45 -133 -82 -250 -85 -261 -2 -11 -10 -41 -18
-66 -16 -48 -74 -267 -81 -302 -2 -11 -7 -29 -10 -39 -3 -10 -7 -27 -9 -37 -3
-10 -12 -49 -21 -88 -21 -89 -64 -291 -70 -330 -3 -16 -7 -41 -10 -55 -8 -34
-12 -57 -19 -110 -4 -25 -8 -52 -11 -60 -2 -8 -7 -40 -10 -70 -4 -30 -9 -58
-10 -61 -2 -3 -7 -34 -10 -70 -3 -35 -8 -71 -10 -79 -2 -8 -7 -40 -10 -70 -3
-30 -8 -77 -11 -105 -7 -56 -10 -95 -20 -210 -3 -44 -7 -96 -9 -115 -19 -192
-26 -783 -12 -1020 8 -142 17 -254 22 -300 2 -19 7 -71 10 -115 3 -44 8 -91
10 -105 2 -14 7 -43 9 -65 5 -34 14 -104 31 -232 4 -30 41 -259 50 -308 3 -16
7 -39 9 -50 8 -42 77 -362 87 -400 6 -22 12 -47 14 -55 2 -8 11 -44 20 -80 9
-36 19 -76 22 -89 2 -14 6 -28 9 -33 3 -4 7 -16 9 -25 9 -36 24 -90 45 -158
12 -38 22 -74 24 -80 12 -46 137 -417 156 -462 12 -27 17 -40 65 -163 77 -198
247 -580 258 -580 3 0 74 33 158 74 394 188 609 292 784 376 162 78 336 162
510 245 61 29 173 83 250 120 77 37 203 98 280 135 165 79 339 163 600 290
269 131 254 125 259 98 5 -20 41 -207 52 -262 2 -12 6 -30 8 -41 4 -17 60
-292 72 -350 10 -51 18 -92 20 -110 1 -11 3 -20 4 -20 2 0 3 -7 13 -55 16 -73
28 -138 31 -160 2 -14 9 -43 15 -65 5 -22 12 -57 15 -77 2 -21 7 -41 9 -45 3
-4 8 -26 11 -48 4 -22 9 -48 12 -58 3 -11 7 -29 9 -40 1 -12 13 -69 25 -127
12 -58 23 -116 25 -130 2 -14 4 -25 5 -25 1 0 3 -9 5 -20 3 -11 8 -40 13 -65
5 -25 31 -151 57 -280 25 -129 49 -242 52 -250 3 -8 7 -24 9 -35 4 -35 13 -75
18 -93 3 -9 7 -33 10 -52 2 -19 10 -57 16 -85 6 -27 13 -59 16 -70 2 -11 6
-31 9 -45 2 -14 7 -41 10 -60 3 -19 8 -43 11 -52 3 -9 7 -27 9 -40 3 -13 12
-59 21 -103 9 -44 18 -89 19 -100 2 -11 13 -64 24 -117 11 -54 23 -108 25
-120 2 -13 28 -138 56 -278 28 -140 53 -266 56 -280 2 -14 9 -48 15 -76 5 -28
12 -64 15 -80 3 -16 9 -48 15 -72 5 -23 12 -59 15 -80 3 -20 7 -44 10 -52 3
-8 8 -28 11 -45 2 -16 7 -41 9 -55 3 -14 9 -45 14 -70 5 -25 11 -56 14 -70 2
-14 10 -52 16 -85 7 -33 13 -64 15 -70 1 -5 5 -28 9 -50 4 -22 16 -83 27 -135
10 -52 21 -111 24 -130 3 -19 11 -60 17 -90 6 -30 12 -64 14 -75 1 -11 3 -20
4 -20 1 0 4 -13 6 -30 1 -16 10 -61 18 -100 14 -66 70 -356 80 -420 3 -16 10
-55 16 -85 6 -30 13 -71 16 -90 2 -19 7 -43 10 -52 3 -10 7 -30 10 -45 3 -16
9 -53 15 -83 6 -30 12 -64 13 -75 2 -11 9 -49 16 -85 7 -36 14 -78 16 -95 2
-16 9 -53 14 -81 6 -28 13 -64 16 -80 2 -16 9 -54 15 -84 6 -30 12 -64 14 -75
2 -11 7 -38 10 -60 13 -81 23 -130 25 -130 1 0 3 -13 5 -30 5 -39 10 -67 23
-140 6 -33 14 -73 16 -90 11 -65 56 -331 60 -351 2 -12 7 -39 11 -60 3 -22 7
-50 10 -64 10 -64 36 -218 40 -240 3 -14 7 -43 10 -65 2 -22 11 -78 19 -125
15 -83 21 -123 32 -205 3 -22 7 -47 9 -55 3 -8 7 -33 10 -55 4 -22 11 -69 16
-105 6 -36 13 -81 15 -100 2 -19 9 -60 14 -90 5 -30 12 -75 15 -100 3 -25 8
-56 10 -70 2 -14 7 -44 10 -67 3 -23 8 -55 10 -70 2 -15 8 -62 14 -103 5 -42
12 -89 15 -105 3 -17 10 -68 16 -115 15 -117 20 -153 24 -175 2 -11 7 -49 11
-85 4 -36 9 -81 11 -100 3 -19 7 -51 9 -70 2 -19 6 -46 9 -60 3 -14 7 -56 11
-95 3 -38 8 -79 10 -90 2 -11 7 -47 10 -80 3 -33 7 -71 9 -85 2 -14 7 -59 11
-100 4 -41 9 -82 10 -91 2 -8 6 -49 10 -90 3 -41 8 -90 10 -109 2 -19 6 -66 9
-105 4 -38 8 -92 11 -120 7 -65 16 -189 30 -400 3 -49 8 -119 11 -155 12 -148
28 -429 39 -690 3 -69 8 -165 11 -215 2 -49 7 -148 9 -220 3 -71 7 -188 10
-260 11 -297 16 -443 21 -680 21 -1005 17 -2282 -11 -3260 -15 -495 -21 -690
-30 -925 -2 -69 -7 -190 -10 -270 -8 -225 -26 -635 -40 -910 -2 -47 -7 -137
-10 -200 -14 -299 -23 -464 -30 -570 -3 -41 -7 -124 -10 -185 -5 -110 -11
-202 -21 -370 -3 -49 -7 -128 -9 -175 -2 -47 -6 -125 -9 -175 -4 -49 -8 -133
-11 -185 -3 -52 -8 -129 -10 -170 -3 -41 -7 -122 -10 -180 -3 -58 -7 -139 -10
-180 -29 -484 -24 -567 42 -730 55 -136 218 -341 348 -436 22 -16 42 -32 45
-35 3 -4 52 -37 109 -74 383 -248 963 -460 1696 -620 11 -2 29 -6 40 -9 11 -2
43 -10 70 -16 28 -6 59 -13 70 -14 11 -2 56 -10 100 -19 44 -9 92 -19 108 -21
15 -3 35 -7 45 -10 9 -3 35 -7 57 -11 22 -3 81 -12 130 -21 50 -8 104 -17 120
-20 17 -2 43 -7 58 -10 16 -3 38 -7 50 -8 12 -2 42 -6 67 -10 49 -8 47 -8 205
-30 104 -15 147 -21 240 -32 22 -2 51 -6 65 -8 23 -4 59 -8 160 -22 19 -2 62
-7 95 -10 33 -3 74 -7 90 -9 94 -12 200 -23 290 -30 22 -2 40 -4 40 -5 0 0 20
-3 45 -5 111 -9 198 -17 230 -20 19 -2 71 -7 115 -10 44 -4 100 -8 125 -10 42
-4 150 -12 265 -20 28 -2 93 -7 146 -10 53 -3 125 -8 160 -10 90 -7 208 -14
319 -19 52 -3 147 -8 210 -11 235 -13 692 -29 842 -29 60 -1 108 -3 108 -6 0
-9 576 -14 1310 -13 919 2 1679 2 2555 0 641 -1 1103 4 1500 18 77 3 208 7
290 10 203 7 374 14 470 20 44 3 141 8 215 11 156 7 205 10 315 18 44 3 121 8
170 11 50 2 115 7 145 10 30 3 91 7 135 10 44 3 100 7 125 9 25 3 77 7 115 10
62 5 115 9 245 21 19 2 35 4 35 5 0 0 29 3 65 5 36 3 84 7 107 10 23 3 68 8
100 10 32 3 76 7 98 10 57 7 122 14 180 20 28 3 66 8 85 10 64 9 114 15 160
20 25 3 81 10 125 16 44 6 90 13 102 14 13 2 40 6 60 9 21 3 58 8 83 11 63 8
213 31 260 40 14 3 40 7 58 10 38 6 62 10 207 35 61 11 121 22 135 25 14 2 81
16 150 29 69 14 136 28 150 31 14 3 36 8 50 10 14 2 63 14 110 25 47 12 94 23
105 26 11 2 29 6 40 8 116 24 431 114 630 181 699 233 1143 526 1323 870 39
75 72 174 80 240 10 83 5 307 -13 600 -2 39 -6 117 -10 175 -3 58 -7 139 -10
180 -2 41 -7 122 -10 180 -3 58 -8 139 -10 180 -2 41 -7 120 -10 175 -3 55 -7
136 -10 180 -3 44 -7 123 -10 175 -3 52 -7 129 -10 170 -2 41 -7 127 -10 190
-3 63 -8 151 -10 195 -7 124 -15 271 -20 380 -3 55 -7 145 -10 200 -3 55 -8
152 -10 215 -3 63 -7 162 -10 220 -3 58 -7 161 -10 230 -2 69 -7 177 -10 240
-7 168 -15 374 -20 545 -3 83 -7 202 -9 265 -4 103 -9 284 -21 810 -4 163 -18
1181 -16 1210 0 8 0 60 0 115 0 55 0 107 0 115 0 8 0 67 0 130 0 63 0 120 0
125 0 6 0 42 0 80 0 39 0 77 0 85 -4 138 22 1335 36 1685 3 66 7 179 10 250 3
72 7 177 10 235 10 206 17 326 20 385 2 33 6 114 9 180 3 66 8 145 11 175 3
30 7 91 10 135 9 147 15 229 20 295 3 36 8 92 10 125 3 33 7 89 11 125 3 36 7
83 9 105 8 91 16 182 20 215 4 35 15 142 20 190 1 14 5 48 9 75 3 28 8 75 11
105 6 57 12 108 21 175 3 22 8 56 10 75 6 66 13 125 19 160 3 19 7 55 10 80 2
25 6 54 8 65 3 11 8 46 12 79 3 32 8 68 10 80 2 11 6 44 10 71 6 54 22 164 29
205 2 14 7 48 10 75 3 28 8 61 10 75 3 14 7 43 11 65 10 72 34 229 40 270 3
23 7 50 9 60 2 11 7 40 10 65 3 25 8 54 10 65 2 11 7 43 10 70 4 28 9 57 11
65 2 8 6 31 9 50 11 74 18 116 22 145 3 17 7 41 9 55 5 36 14 91 21 122 3 15
7 39 9 55 2 15 9 60 15 98 7 39 14 79 15 90 4 27 24 144 30 175 24 134 46 261
50 290 3 19 7 46 10 60 5 26 23 123 31 175 3 17 10 55 15 85 6 30 12 66 14 80
2 14 7 41 11 60 4 19 8 42 9 50 1 8 5 29 8 45 4 17 9 46 12 65 13 80 16 96 20
110 3 8 7 31 9 50 3 19 8 46 11 60 3 14 7 39 10 55 2 17 11 66 20 110 16 82
26 138 30 165 1 8 7 40 13 70 6 30 23 118 38 195 14 77 28 149 30 160 2 11 8
45 14 75 6 30 12 66 15 80 4 23 20 108 32 170 2 14 10 57 18 95 8 39 17 85 20
103 3 18 12 65 21 105 8 39 17 87 20 106 7 42 7 40 39 196 15 72 31 153 36
180 15 88 19 110 26 135 6 26 8 36 16 85 3 17 13 65 22 108 9 43 18 91 20 105
2 15 31 160 65 322 33 162 63 309 66 325 3 17 10 50 15 75 6 25 12 56 14 70 2
14 13 70 25 125 12 55 23 111 26 125 3 14 13 66 24 115 10 50 22 110 25 135 4
24 8 47 10 51 2 3 6 19 9 35 3 16 15 74 26 129 12 55 24 111 26 125 3 14 34
166 70 339 35 173 66 326 69 340 3 14 7 35 9 46 7 31 57 277 62 300 2 11 8 40
14 65 5 25 12 56 14 70 2 14 14 72 26 130 23 110 24 114 40 195 5 28 14 70 20
95 13 60 15 74 46 225 14 72 28 139 30 150 3 11 7 31 9 45 2 14 20 106 40 205
20 99 39 191 41 205 3 14 7 33 10 42 3 10 7 30 10 45 2 16 11 63 20 106 8 42
17 90 20 105 2 15 7 41 11 57 9 39 9 40 23 110 18 97 69 365 76 400 4 26 8 50
28 160 9 50 21 110 26 135 6 25 12 65 15 89 3 23 7 46 9 50 2 3 7 29 10 56 4
28 9 57 11 65 7 24 15 73 30 185 2 17 6 41 9 55 3 14 7 43 11 65 3 22 7 54 10
70 7 45 18 131 31 235 3 25 7 97 9 161 4 101 2 120 -16 157 -38 76 -148 145
-330 205 -98 33 -172 55 -209 62 -8 2 -45 10 -83 19 -37 9 -82 18 -100 21 -17
3 -63 12 -102 20 -38 8 -87 17 -109 21 -21 3 -48 8 -60 10 -11 2 -41 7 -64 9
-24 3 -47 7 -51 9 -4 3 -39 8 -77 11 -38 4 -72 9 -75 11 -3 2 -33 6 -66 9 -33
3 -68 7 -79 9 -10 2 -44 7 -74 10 -30 4 -73 10 -95 13 -22 2 -60 6 -85 9 -25
2 -65 6 -90 9 -49 6 -84 10 -200 20 -41 4 -88 9 -105 10 -16 2 -64 6 -105 10
-41 3 -100 8 -130 11 -54 5 -98 8 -235 19 -188 14 -226 16 -300 20 -44 3 -107
7 -140 10 -61 5 -150 11 -310 19 -49 3 -135 8 -190 11 -55 3 -145 8 -200 10
-55 3 -138 7 -185 9 -47 3 -150 7 -230 10 -80 3 -190 8 -245 11 -55 3 -163 7
-240 10 -77 3 -205 7 -285 10 -80 3 -221 7 -315 10 -93 3 -170 5 -170 5 0 1
-74 3 -165 5 -91 2 -253 7 -360 10 -360 10 -992 22 -1575 30 -984 14 -1707 18
-3855 21 -1301 2 -2366 4 -2367 4 -1 0 2 12 6 28 5 17 1 51 -12 97 -23 85 -28
136 -15 184 17 63 93 205 246 459 181 299 222 379 263 508 18 54 35 103 40
108 4 5 3 19 -1 32 -10 26 -41 10 420 232 63 30 212 102 330 160 209 101 315
151 325 152 2 1 32 16 66 35 33 19 63 35 64 35 5 0 220 103 823 396 97 48 254
124 347 169 460 222 445 214 436 238 -26 65 -273 527 -329 612 -7 11 -15 28
-18 38 -4 9 -10 17 -15 17 -5 0 -9 5 -9 11 0 6 -20 42 -45 80 -25 38 -45 74
-45 79 0 6 -3 10 -8 10 -4 0 -18 20 -31 45 -13 25 -28 45 -32 45 -5 0 -9 5 -9
11 0 12 -139 218 -254 374 -75 103 -342 444 -356 455 -3 3 -34 39 -69 80 -122
143 -227 256 -421 450 -213 214 -356 348 -470 441 -25 20 -58 49 -75 64 -47
42 -302 245 -385 306 -186 138 -259 189 -268 189 -6 0 -12 4 -14 8 -1 5 -43
36 -93 68 -49 32 -91 62 -93 67 -2 4 -7 7 -12 7 -5 0 -35 17 -67 38 -72 46
-69 44 -228 139 -613 365 -1326 672 -2030 872 -148 42 -439 116 -490 124 -16
3 -52 10 -80 17 -27 6 -61 14 -75 16 -14 2 -36 7 -50 9 -14 3 -36 8 -50 10
-14 3 -36 7 -50 10 -14 3 -41 8 -60 10 -19 3 -46 8 -60 11 -13 3 -40 8 -60 10
-19 3 -46 7 -60 9 -14 2 -43 6 -65 9 -22 4 -53 8 -70 11 -137 21 -384 47 -570
60 -49 3 -121 9 -160 11 -72 6 -762 13 -767 9z"/>
</g>
</svg>
